# xmcd CD database file
#
# Track frame offsets:
#	150
#	17768
#	34083
#	50733
#	71483
#	90888
#	113915
#	134823
#	150250
#	170575
#	192150
#	210860
#
# Disc length: 3060 seconds
#
# Revision: 0
# Processed by: cddbd v1.5.2PL0 Copyright (c) Steve Scherf et al.
# Submitted via: CDex 1.70beta2
#
DISCID=990bf20c
DTITLE=AA.VV  - Le Più Belle Sigle  - Amore E'
DYEAR=1991
DGENRE=Musica Italiana
TTITLE0=Drupi - Se Dio Ti Da (Paoli-Pallavicini-Paoli)
TTITLE1=Maurizio Vandelli - She's leaving Home (Lennon-McCartney)
TTITLE2=Carlos Mata - Ti Sto Amando Troppo (Perez-Sanchez-Aldrighetti)
TTITLE3=Andrea Monteforte - La Mia Stella (A.Monteforte)
TTITLE4=Twenty 4 Seven - In Your Eyes (Von Rijen-Jaspers)
TTITLE5=Gino Paoli - Cosa Farò Da Grande (Paoli-Vessicchio)
TTITLE6=Andrea Monteforte - Se Tutto Il Mondo (A.Monteforte)
TTITLE7=Pablo Olvidas - Manuela (Pace-Alejandro-Magdalena)
TTITLE8=Valentina Gautier - Ehy Tu (Valentina-Ward-Tyson)
TTITLE9=Patty Pravo - Pazza Idea (Dssena-Monti-Ullu-Gigli)
TTITLE10=Massimiliano Cattapani - Senorita (M.Cattapani)
TTITLE11=Maurizio Vandelli - Manifesto (De Burgh-Avogadro)
EXTD=YEAR: 1991
EXTT0=
EXTT1=
EXTT2=
EXTT3=
EXTT4=
EXTT5=
EXTT6=
EXTT7=
EXTT8=
EXTT9=
EXTT10=
EXTT11=
PLAYORDER=
